<svg version="1.1" id="Layer_1" xmlns="http://www.w3.org/2000/svg" xmlns:xlink="http://www.w3.org/1999/xlink" x="0px" y="0px"
	 width="100%" viewBox="0 0 940 788" enable-background="new 0 0 940 788" xml:space="preserve">
<path fill="#000000" opacity="1.000000" stroke="none" 
	d="
M567.000000,789.000000 
	C378.000061,789.000000 189.500107,789.000000 1.000126,789.000000 
	C1.000084,526.333496 1.000084,263.666931 1.000042,1.000303 
	C314.333099,1.000202 627.666199,1.000202 940.999512,1.000101 
	C940.999634,263.666351 940.999634,526.332703 940.999817,788.999512 
	C816.500000,789.000000 692.000000,789.000000 567.000000,789.000000 
M483.708435,342.789337 
	C494.100220,353.917358 507.231079,359.059998 522.396851,359.612244 
	C521.830933,363.164825 521.314941,365.932465 520.959290,368.720551 
	C519.574768,379.574402 524.251160,388.133514 534.273865,392.354218 
	C537.747803,393.817169 541.560242,394.585449 545.287476,395.317780 
	C558.794922,397.971893 570.254822,394.036926 579.700623,384.139648 
	C583.559448,380.096375 584.121155,373.738251 580.356689,369.719788 
	C577.600037,366.777130 573.874695,364.741638 570.579346,362.304138 
	C569.612305,361.588837 568.639343,360.881378 567.601929,360.121094 
	C574.608704,357.692780 580.982910,355.806427 587.084778,353.266174 
	C591.911255,351.256927 592.188660,349.393860 588.505737,345.506989 
	C585.900574,342.757568 582.991089,340.090057 579.746826,338.189056 
	C567.004578,330.722656 555.386597,322.135284 546.647156,309.914124 
	C542.339844,303.890839 537.546570,298.064789 532.185547,292.979858 
	C523.776367,285.003723 517.072632,276.318726 514.569153,264.701447 
	C514.208191,263.026184 511.680573,260.946228 509.860321,260.598328 
	C497.933807,258.318481 485.993042,255.753952 473.931152,254.614960 
	C447.433167,252.112823 421.314056,253.778625 396.786804,265.537048 
	C390.608978,268.498718 384.776794,272.181427 378.785736,275.532776 
	C378.953003,276.288086 379.120270,277.043396 379.287506,277.798706 
	C386.967255,277.798706 394.646973,277.798706 402.326691,277.798706 
	C402.352356,278.296112 402.378021,278.793549 402.403687,279.290955 
	C394.390228,285.653320 385.913696,291.524292 378.494263,298.516937 
	C371.152618,305.436188 364.218018,313.007141 358.288025,321.153473 
	C349.121002,333.746735 345.161072,343.598328 345.572845,348.385712 
	C345.855957,348.243866 346.211731,348.168793 346.411896,347.950806 
	C374.631256,317.221802 410.025085,301.163116 451.104645,296.715424 
	C458.331329,295.933044 458.540649,296.101929 460.757324,302.762115 
	C465.633759,317.413788 472.368439,331.021759 483.708435,342.789337 
M436.619232,373.282104 
	C407.190247,385.469604 361.381500,431.994293 361.359436,450.160583 
	C382.177094,454.189240 400.041168,464.869659 417.545837,477.445404 
	C419.084106,474.082245 420.172180,471.509705 421.419769,469.017029 
	C423.872467,464.116486 426.022430,459.006866 428.986511,454.429871 
	C441.579254,434.984955 459.625732,422.335724 481.006989,414.347534 
	C488.909698,411.395081 497.278351,409.680786 505.452118,407.467010 
	C508.767395,406.569092 509.782837,405.275909 508.745514,401.405884 
	C507.094574,395.246796 506.215210,388.785278 505.854736,382.403900 
	C505.520294,376.483734 505.127228,375.375641 499.082947,375.347595 
	C491.262482,375.311340 484.502808,372.750916 478.386383,367.907898 
	C476.502533,366.416229 473.882904,365.011261 471.598694,365.008942 
	C459.600586,364.996735 448.339874,368.557251 436.619232,373.282104 
M513.442871,528.372925 
	C513.442871,530.461609 513.442871,532.550293 513.442871,535.927124 
	C515.967163,533.656555 517.909058,532.399414 519.212769,530.663208 
	C536.675293,507.408295 542.419556,482.019104 531.975403,454.224518 
	C528.496704,444.966736 524.008362,436.019684 519.234619,427.341461 
	C516.081055,421.608643 513.746643,421.237488 507.701935,423.640472 
	C498.446045,427.319946 489.031281,430.742493 480.162750,435.222046 
	C464.556885,443.104736 450.518524,453.151154 441.401642,468.631958 
	C438.584106,473.416260 436.226501,478.531860 436.567596,484.898956 
	C439.490631,484.722565 441.934235,484.427673 444.374298,484.454254 
	C453.334595,484.551727 462.413086,483.881134 471.230957,485.084015 
	C497.739594,488.700226 512.085388,503.520721 513.442871,528.372925 
M366.917847,406.400269 
	C374.404846,399.569824 381.669250,392.474121 389.426239,385.965393 
	C404.521515,373.299286 420.628204,362.086121 439.335663,355.343628 
	C445.968262,352.953125 452.996338,351.659943 459.964661,349.834167 
	C459.851227,349.478302 459.840942,348.905975 459.549774,348.610962 
	C450.694153,339.639893 444.382721,329.320557 442.348755,316.667419 
	C441.939209,314.119659 440.353577,313.563873 437.939270,314.336334 
	C428.000519,317.516296 417.648895,319.726776 408.142517,323.880676 
	C371.113922,340.060699 350.610504,368.711945 346.311340,408.836823 
	C345.689423,414.641235 346.225128,420.569733 346.225128,426.120300 
	C352.993805,419.674957 359.702942,413.286346 366.917847,406.400269 
M575.897400,441.561005 
	C580.975769,430.464905 584.481689,419.125763 581.668152,405.563416 
	C568.831055,415.149536 554.758972,415.081146 538.965271,413.723175 
	C550.578430,428.325195 557.670532,443.519104 562.430176,459.865997 
	C562.960449,460.047577 563.490662,460.229126 564.020874,460.410706 
	C567.866516,454.348633 571.712158,448.286560 575.897400,441.561005 
z"/>
<path fill="#EA243A" opacity="1.000000" stroke="none" 
	d="
M483.460022,342.539429 
	C472.368439,331.021759 465.633759,317.413788 460.757324,302.762115 
	C458.540649,296.101929 458.331329,295.933044 451.104645,296.715424 
	C410.025085,301.163116 374.631256,317.221802 346.411896,347.950806 
	C346.211731,348.168793 345.855957,348.243866 345.570251,348.380554 
	C345.161072,343.598328 349.121002,333.746735 358.288025,321.153473 
	C364.218018,313.007141 371.152618,305.436188 378.494263,298.516937 
	C385.913696,291.524292 394.390228,285.653320 402.403687,279.290955 
	C402.378021,278.793549 402.352356,278.296112 402.326691,277.798706 
	C394.646973,277.798706 386.967255,277.798706 379.287506,277.798706 
	C379.120270,277.043396 378.953003,276.288086 378.785736,275.532776 
	C384.776794,272.181427 390.608978,268.498718 396.786804,265.537048 
	C421.314056,253.778625 447.433167,252.112823 473.931152,254.614960 
	C485.993042,255.753952 497.933807,258.318481 509.860321,260.598328 
	C511.680573,260.946228 514.208191,263.026184 514.569153,264.701447 
	C517.072632,276.318726 523.776367,285.003723 532.185547,292.979858 
	C537.546570,298.064789 542.339844,303.890839 546.647156,309.914124 
	C555.386597,322.135284 567.004578,330.722656 579.746826,338.189056 
	C582.991089,340.090057 585.900574,342.757568 588.505737,345.506989 
	C592.188660,349.393860 591.911255,351.256927 587.084778,353.266174 
	C580.982910,355.806427 574.608704,357.692780 567.601929,360.121094 
	C568.639343,360.881378 569.612305,361.588837 570.579346,362.304138 
	C573.874695,364.741638 577.600037,366.777130 580.356689,369.719788 
	C584.121155,373.738251 583.559448,380.096375 579.700623,384.139648 
	C570.254822,394.036926 558.794922,397.971893 545.287476,395.317780 
	C541.560242,394.585449 537.747803,393.817169 534.273865,392.354218 
	C524.251160,388.133514 519.574768,379.574402 520.959290,368.720551 
	C521.314941,365.932465 521.830933,363.164825 522.396851,359.612244 
	C507.231079,359.059998 494.100220,353.917358 483.460022,342.539429 
M529.014160,324.326813 
	C529.326233,324.438293 529.635742,324.557526 529.950684,324.660217 
	C539.796753,327.870392 539.796021,327.870300 537.957703,318.059570 
	C537.866211,317.571533 537.754700,317.077759 537.746521,316.585083 
	C537.681885,312.683136 535.376892,311.489716 531.884705,311.656799 
	C527.584412,311.862579 523.272278,311.907928 518.983948,312.253967 
	C513.721436,312.678589 508.478333,313.342499 503.226807,313.902985 
	C503.193481,314.445831 503.160156,314.988678 503.126801,315.531525 
	C511.508728,318.375580 519.890625,321.219666 529.014160,324.326813 
z"/>
<path fill="#EB243B" opacity="1.000000" stroke="none" 
	d="
M436.972778,373.140198 
	C448.339874,368.557251 459.600586,364.996735 471.598694,365.008942 
	C473.882904,365.011261 476.502533,366.416229 478.386383,367.907898 
	C484.502808,372.750916 491.262482,375.311340 499.082947,375.347595 
	C505.127228,375.375641 505.520294,376.483734 505.854736,382.403900 
	C506.215210,388.785278 507.094574,395.246796 508.745514,401.405884 
	C509.782837,405.275909 508.767395,406.569092 505.452118,407.467010 
	C497.278351,409.680786 488.909698,411.395081 481.006989,414.347534 
	C459.625732,422.335724 441.579254,434.984955 428.986511,454.429871 
	C426.022430,459.006866 423.872467,464.116486 421.419769,469.017029 
	C420.172180,471.509705 419.084106,474.082245 417.545837,477.445404 
	C400.041168,464.869659 382.177094,454.189240 361.359436,450.160583 
	C361.381500,431.994293 407.190247,385.469604 436.972778,373.140198 
z"/>
<path fill="#EA243A" opacity="1.000000" stroke="none" 
	d="
M513.420593,527.929810 
	C512.085388,503.520721 497.739594,488.700226 471.230957,485.084015 
	C462.413086,483.881134 453.334595,484.551727 444.374298,484.454254 
	C441.934235,484.427673 439.490631,484.722565 436.567596,484.898956 
	C436.226501,478.531860 438.584106,473.416260 441.401642,468.631958 
	C450.518524,453.151154 464.556885,443.104736 480.162750,435.222046 
	C489.031281,430.742493 498.446045,427.319946 507.701935,423.640472 
	C513.746643,421.237488 516.081055,421.608643 519.234619,427.341461 
	C524.008362,436.019684 528.496704,444.966736 531.975403,454.224518 
	C542.419556,482.019104 536.675293,507.408295 519.212769,530.663208 
	C517.909058,532.399414 515.967163,533.656555 513.442871,535.927124 
	C513.442871,532.550293 513.442871,530.461609 513.420593,527.929810 
z"/>
<path fill="#E9243B" opacity="1.000000" stroke="none" 
	d="
M366.664948,406.648987 
	C359.702942,413.286346 352.993805,419.674957 346.225128,426.120300 
	C346.225128,420.569733 345.689423,414.641235 346.311340,408.836823 
	C350.610504,368.711945 371.113922,340.060699 408.142517,323.880676 
	C417.648895,319.726776 428.000519,317.516296 437.939270,314.336334 
	C440.353577,313.563873 441.939209,314.119659 442.348755,316.667419 
	C444.382721,329.320557 450.694153,339.639893 459.549774,348.610962 
	C459.840942,348.905975 459.851227,349.478302 459.964661,349.834167 
	C452.996338,351.659943 445.968262,352.953125 439.335663,355.343628 
	C420.628204,362.086121 404.521515,373.299286 389.426239,385.965393 
	C381.669250,392.474121 374.404846,399.569824 366.664948,406.648987 
z"/>
<path fill="#E3233B" opacity="1.000000" stroke="none" 
	d="
M575.727539,441.892761 
	C571.712158,448.286560 567.866516,454.348633 564.020874,460.410706 
	C563.490662,460.229126 562.960449,460.047577 562.430176,459.865997 
	C557.670532,443.519104 550.578430,428.325195 538.965271,413.723175 
	C554.758972,415.081146 568.831055,415.149536 581.668152,405.563416 
	C584.481689,419.125763 580.975769,430.464905 575.727539,441.892761 
z"/>
<path fill="#000000" opacity="1.000000" stroke="none" 
	d="
M528.643311,324.195251 
	C519.890625,321.219666 511.508728,318.375580 503.126801,315.531525 
	C503.160156,314.988678 503.193481,314.445831 503.226807,313.902985 
	C508.478333,313.342499 513.721436,312.678589 518.983948,312.253967 
	C523.272278,311.907928 527.584412,311.862579 531.884705,311.656799 
	C535.376892,311.489716 537.681885,312.683136 537.746521,316.585083 
	C537.754700,317.077759 537.866211,317.571533 537.957703,318.059570 
	C539.796021,327.870300 539.796753,327.870392 529.950684,324.660217 
	C529.635742,324.557526 529.326233,324.438293 528.643311,324.195251 
z"/>
</svg>